<?xml version="1.0" encoding="UTF-8" standalone="no"?>
<svg
   xmlns:dc="http://purl.org/dc/elements/1.1/"
   xmlns:cc="http://creativecommons.org/ns#"
   xmlns:rdf="http://www.w3.org/1999/02/22-rdf-syntax-ns#"
   xmlns:svg="http://www.w3.org/2000/svg"
   xmlns="http://www.w3.org/2000/svg"
   viewBox="0 0 1000 750"
   height="750"
   width="1000"
   xml:space="preserve"
   version="1.1"
   id="svg2"><metadata
     id="metadata8"><rdf:RDF><cc:Work
         rdf:about=""><dc:format>image/svg+xml</dc:format><dc:type
           rdf:resource="http://purl.org/dc/dcmitype/StillImage" /></cc:Work></rdf:RDF></metadata><defs
     id="defs6"><clipPath
       id="clipPath16"
       clipPathUnits="userSpaceOnUse"><path
         id="path18"
         d="M 0,600 800,600 800,0 0,0 0,600 Z" /></clipPath><clipPath
       id="clipPath28"
       clipPathUnits="userSpaceOnUse"><path
         id="path30"
         d="m 249.586,592 519.415,0 0,-519.415 -519.415,0 0,519.415 z" /></clipPath><clipPath
       id="clipPath44"
       clipPathUnits="userSpaceOnUse"><path
         id="path46"
         d="m 8.9458,493.377 324.7992,0 0,-324.799 -324.7992,0 0,324.799 z" /></clipPath></defs><g
     transform="matrix(1.25,0,0,-1.25,0,750)"
     id="g10"><g
       id="g12"><g
         clip-path="url(#clipPath16)"
         id="g14"><g
           transform="translate(333.7446,330.9775)"
           id="g20"><path
             id="path22"
             style="fill:#7fc4ff;fill-opacity:1;fill-rule:nonzero;stroke:none"
             d="m 0,0 c 0,89.69 -72.709,162.399 -162.399,162.399 -89.691,0 -162.4,-72.709 -162.4,-162.399 0,-89.69 72.709,-162.399 162.4,-162.399 C -72.709,-162.399 0,-89.69 0,0" /></g><g
           id="g24"><g
             id="g26" /><g
             id="g32"><g
               style="opacity:0.75"
               id="g34"
               clip-path="url(#clipPath28)"><g
                 id="g36"
                 transform="translate(769.001,332.2925)"><path
                   id="path38"
                   style="fill:#c1e957;fill-opacity:1;fill-rule:nonzero;stroke:none"
                   d="m 0,0 c 0,-143.432 -116.275,-259.708 -259.707,-259.708 -143.433,0 -259.708,116.276 -259.708,259.708 0,143.432 116.275,259.708 259.708,259.708 C -116.275,259.708 0,143.432 0,0" /></g></g></g></g><g
           id="g40"><g
             id="g42" /><g
             id="g48"><g
               style="opacity:0.28999299"
               id="g50"
               clip-path="url(#clipPath44)"><g
                 id="g52"
                 transform="translate(333.7446,330.9775)"><path
                   id="path54"
                   style="fill:#7fc4ff;fill-opacity:1;fill-rule:nonzero;stroke:none"
                   d="m 0,0 c 0,89.69 -72.709,162.399 -162.399,162.399 -89.691,0 -162.4,-72.709 -162.4,-162.399 0,-89.69 72.709,-162.399 162.4,-162.399 C -72.709,-162.399 0,-89.69 0,0" /></g></g></g></g><text
           id="text56"
           style="font-variant:normal;font-weight:500;font-stretch:normal;font-size:159.07359314px;font-family:Tuffy;-inkscape-font-specification:Tuffy;writing-mode:lr-tb;fill:#ffffff;fill-opacity:1;fill-rule:nonzero;stroke:none"
           transform="matrix(1,0,0,-0.99197416,5,286.9277)"><tspan
             id="tspan58"
             y="0"
             x="0 81.922905 163.05045 244.97334">open</tspan></text>
<text
           id="text60"
           style="font-variant:normal;font-weight:500;font-stretch:normal;font-size:160.01170349px;font-family:Tuffy;-inkscape-font-specification:Tuffy;writing-mode:lr-tb;fill:#555555;fill-opacity:1;fill-rule:nonzero;stroke:none"
           transform="matrix(1,0,0,-0.98615851,336.374,286.9277)"><tspan
             id="tspan62"
             y="0"
             x="0 83.206085 164.01199 221.61621 296.82172">hatch</tspan></text>
</g></g></g></svg>